<svg id="kity_svg_6" xmlns="http://www.w3.org/2000/svg" xmlns:xlink="http://www.w3.org/1999/xlink" version="1.1" width="616" height="936" style="background: rgb(251, 251, 251); visibility: visible;" viewBox="0 0 616 936"><defs id="kity_defs_7"><linearGradient id="kity_linearGradient_17" x1="0" y1="0" x2="0" y2="1"><stop id="kity_stop_18" offset="0" stop-color="rgb(255, 255, 255)"></stop><stop id="kity_stop_19" offset="1" stop-color="rgb(204, 204, 204)"></stop></linearGradient><marker id="kity_marker_4" orient="auto" refX="6" refY="0" viewBox="-7 -7 14 14" markerWidth="7" markerHeight="7" markerUnits="userSpaceOnUse"><path id="kity_path_5" fill="rgb(191, 115, 148)" stroke="none" d="M6,0A6,6,0,1,1,-6,0A6,6,0,1,1,6,0"></path></marker><marker id="kity_marker_2" orient="auto" refX="6" refY="0" viewBox="-7 -7 14 14" markerWidth="7" markerHeight="7" markerUnits="userSpaceOnUse"><path id="kity_path_3" fill="rgb(191, 115, 148)" stroke="none" d="M6,0A6,6,0,1,1,-6,0A6,6,0,1,1,6,0"></path></marker></defs><g id="kity_g_8"><g id="minder1" text-rendering="optimize-speed"><g id="minder_connect_group1"><path id="kity_path_31" fill="none" stroke="rgb(191, 115, 148)" stroke-width="1" d="M93.5,492.5A89,411,0,0,1,182.5,81.5"></path><path id="kity_path_33" fill="none" stroke="rgb(191, 115, 148)" stroke-width="1" d="M353.5,81.5C361.5,81.5,361.5,29.5,369.5,29.5"></path><path id="kity_path_35" fill="none" stroke="rgb(191, 115, 148)" stroke-width="1" d="M353.5,81.5C361.5,81.5,361.5,55.5,369.5,55.5"></path><path id="kity_path_37" fill="none" stroke="rgb(191, 115, 148)" stroke-width="1" d="M353.5,81.5C361.5,81.5,361.5,81.5,369.5,81.5"></path><path id="kity_path_39" fill="none" stroke="rgb(191, 115, 148)" stroke-width="1" d="M353.5,81.5C361.5,81.5,361.5,107.5,369.5,107.5"></path><path id="kity_path_41" fill="none" stroke="rgb(191, 115, 148)" stroke-width="1" d="M353.5,81.5C361.5,81.5,361.5,133.5,369.5,133.5"></path><path id="kity_path_43" fill="none" stroke="rgb(191, 115, 148)" stroke-width="1" d="M93.5,492.5A89,273,0,0,1,182.5,219.5"></path><path id="kity_path_45" fill="none" stroke="rgb(191, 115, 148)" stroke-width="1" d="M245.5,219.5C253.5,219.5,253.5,167.5,261.5,167.5"></path><path id="kity_path_47" fill="none" stroke="rgb(191, 115, 148)" stroke-width="1" d="M245.5,219.5C253.5,219.5,253.5,193.5,261.5,193.5"></path><path id="kity_path_49" fill="none" stroke="rgb(191, 115, 148)" stroke-width="1" d="M245.5,219.5C253.5,219.5,253.5,219.5,261.5,219.5"></path><path id="kity_path_51" fill="none" stroke="rgb(191, 115, 148)" stroke-width="1" d="M245.5,219.5C253.5,219.5,253.5,245.5,261.5,245.5"></path><path id="kity_path_53" fill="none" stroke="rgb(191, 115, 148)" stroke-width="1" d="M245.5,219.5C253.5,219.5,253.5,271.5,261.5,271.5"></path><path id="kity_path_55" fill="none" stroke="rgb(191, 115, 148)" stroke-width="1" d="M93.5,492.5A89,161,0,0,1,182.5,331.5"></path><path id="kity_path_57" fill="none" stroke="rgb(191, 115, 148)" stroke-width="1" d="M243.5,331.5C251.5,331.5,251.5,305.5,259.5,305.5"></path><path id="kity_path_59" fill="none" stroke="rgb(191, 115, 148)" stroke-width="1" d="M243.5,331.5C251.5,331.5,251.5,331.5,259.5,331.5"></path><path id="kity_path_61" fill="none" stroke="rgb(191, 115, 148)" stroke-width="1" d="M243.5,331.5C251.5,331.5,251.5,357.5,259.5,357.5"></path><path id="kity_path_63" fill="none" stroke="rgb(191, 115, 148)" stroke-width="1" d="M93.5,492.5A89,62,0,0,1,182.5,430.5"></path><path id="kity_path_65" fill="none" stroke="rgb(191, 115, 148)" stroke-width="1" d="M271.5,430.5C279.5,430.5,279.5,391.5,287.5,391.5"></path><path id="kity_path_67" fill="none" stroke="rgb(191, 115, 148)" stroke-width="1" d="M271.5,430.5C279.5,430.5,279.5,417.5,287.5,417.5"></path><path id="kity_path_69" fill="none" stroke="rgb(191, 115, 148)" stroke-width="1" d="M271.5,430.5C279.5,430.5,279.5,443.5,287.5,443.5"></path><path id="kity_path_71" fill="none" stroke="rgb(191, 115, 148)" stroke-width="1" d="M271.5,430.5C279.5,430.5,279.5,469.5,287.5,469.5"></path><path id="kity_path_73" fill="none" stroke="rgb(191, 115, 148)" stroke-width="1" d="M93.5,492.5A89,115,0,0,0,182.5,607.5"></path><path id="kity_path_75" fill="none" stroke="rgb(191, 115, 148)" stroke-width="1" d="M256.5,607.5C264.5,607.5,264.5,503.5,272.5,503.5"></path><path id="kity_path_77" fill="none" stroke="rgb(191, 115, 148)" stroke-width="1" d="M256.5,607.5C264.5,607.5,264.5,529.5,272.5,529.5"></path><path id="kity_path_79" fill="none" stroke="rgb(191, 115, 148)" stroke-width="1" d="M256.5,607.5C264.5,607.5,264.5,555.5,272.5,555.5"></path><path id="kity_path_81" fill="none" stroke="rgb(191, 115, 148)" stroke-width="1" d="M256.5,607.5C264.5,607.5,264.5,581.5,272.5,581.5"></path><path id="kity_path_83" fill="none" stroke="rgb(191, 115, 148)" stroke-width="1" d="M256.5,607.5C264.5,607.5,264.5,607.5,272.5,607.5"></path><path id="kity_path_85" fill="none" stroke="rgb(191, 115, 148)" stroke-width="1" d="M256.5,607.5C264.5,607.5,264.5,633.5,272.5,633.5"></path><path id="kity_path_87" fill="none" stroke="rgb(191, 115, 148)" stroke-width="1" d="M256.5,607.5C264.5,607.5,264.5,659.5,272.5,659.5"></path><path id="kity_path_89" fill="none" stroke="rgb(191, 115, 148)" stroke-width="1" d="M256.5,607.5C264.5,607.5,264.5,685.5,272.5,685.5"></path><path id="kity_path_91" fill="none" stroke="rgb(191, 115, 148)" stroke-width="1" d="M256.5,607.5C264.5,607.5,264.5,711.5,272.5,711.5"></path><path id="kity_path_279" fill="none" stroke="rgb(191, 115, 148)" stroke-width="1" d="M93.5,492.5A89,257,0,0,0,182.5,749.5"></path><path id="kity_path_295" fill="none" stroke="rgb(191, 115, 148)" stroke-width="1" d="M93.5,492.5A89,334,0,0,0,182.5,826.5"></path><path id="kity_path_303" fill="none" stroke="rgb(191, 115, 148)" stroke-width="1" d="M299.5,826.5C307.5,826.5,307.5,787.5,315.5,787.5"></path><path id="kity_path_311" fill="none" stroke="rgb(191, 115, 148)" stroke-width="1" d="M299.5,826.5C307.5,826.5,307.5,813.5,315.5,813.5"></path><path id="kity_path_319" fill="none" stroke="rgb(191, 115, 148)" stroke-width="1" d="M299.5,826.5C307.5,826.5,307.5,839.5,315.5,839.5"></path><path id="kity_path_327" fill="none" stroke="rgb(191, 115, 148)" stroke-width="1" d="M299.5,826.5C307.5,826.5,307.5,865.5,315.5,865.5"></path><path id="kity_path_343" fill="none" stroke="rgb(191, 115, 148)" stroke-width="1" d="M93.5,492.5A89,411,0,0,0,182.5,903.5"></path></g><g id="minder_node1"><path id="node_outline1" fill="rgb(191, 115, 148)" stroke="rgb(191, 115, 148)" d="M25.5,478.5h136a5,5,0,0,1,5,5v18a5,5,0,0,1,-5,5h-136a5,5,0,0,1,-5,-5v-18a5,5,0,0,1,5,-5z" stroke-width="3"></path><g id="node_text1" fill="white"><text id="kity_text_22" text-rendering="inherit" font-size="16" dy=".8em" y="484.5" x="32.5">Java Collection</text></g></g><g id="kity_g_12"><path id="kity_path_13" fill="none" stroke="none" d="M32.5,492.5h0v0h0z"></path></g><g id="kity_g_14"><path id="kity_path_15" fill="none" stroke="none" d="M32.5,492.5h0v0h0z"></path><path id="kity_path_16" fill="none" stroke="none"></path></g><g id="minder_node2"><g id="node_expander6" style="cursor: pointer;"><path id="kity_path_201" fill="white" stroke="gray" d="M183.5,81.5A6,6,0,1,1,171.5,81.5A6,6,0,1,1,183.5,81.5"></path><path id="kity_path_202" fill="none" stroke="gray" d="M173,81.5L182,81.5"></path></g><path id="node_outline7" fill="rgb(246, 238, 242)" stroke="rgb(191, 115, 148)" d="M187.5,68.5h163a3,3,0,0,1,3,3v20a3,3,0,0,1,-3,3h-163a3,3,0,0,1,-3,-3v-20a3,3,0,0,1,3,-3z" stroke-width="1"></path><g id="node_text7" fill="black"><text id="kity_text_103" text-rendering="inherit" font-size="14" dy=".8em" y="74.5" x="204.5">Collection&amp;Iterator</text></g></g><g id="minder_node3"><g id="node_expander1" style="cursor: pointer;" display="none"><path id="kity_path_186" fill="white" stroke="gray" d="M369.5,29.5A6,6,0,1,1,357.5,29.5A6,6,0,1,1,369.5,29.5"></path><path id="kity_path_187" fill="none" stroke="gray"></path></g><path id="node_outline2" fill="none" stroke="none" d="M374.5,20.5h138a5,5,0,0,1,5,5v8a5,5,0,0,1,-5,5h-138a5,5,0,0,1,-5,-5v-8a5,5,0,0,1,5,-5z"></path><g id="node_text2" fill="black"><text id="kity_text_93" text-rendering="inherit" font-size="12" dy=".8em" y="23.5" x="374.5">Tranverse the collection</text></g></g><g id="minder_node4"><g id="node_expander2" style="cursor: pointer;" display="none"><path id="kity_path_189" fill="white" stroke="gray" d="M369.5,55.5A6,6,0,1,1,357.5,55.5A6,6,0,1,1,369.5,55.5"></path><path id="kity_path_190" fill="none" stroke="gray"></path></g><path id="node_outline3" fill="none" stroke="none" d="M374.5,46.5h217a5,5,0,0,1,5,5v8a5,5,0,0,1,-5,5h-217a5,5,0,0,1,-5,-5v-8a5,5,0,0,1,5,-5z"></path><g id="node_text3" fill="black"><text id="kity_text_95" text-rendering="inherit" font-size="12" dy=".8em" y="49.5" x="374.5">Tranverse the collection with Lambda</text></g></g><g id="minder_node5"><g id="node_expander3" style="cursor: pointer;" display="none"><path id="kity_path_192" fill="white" stroke="gray" d="M369.5,81.5A6,6,0,1,1,357.5,81.5A6,6,0,1,1,369.5,81.5"></path><path id="kity_path_193" fill="none" stroke="gray"></path></g><path id="node_outline4" fill="none" stroke="none" d="M374.5,72.5h217a5,5,0,0,1,5,5v8a5,5,0,0,1,-5,5h-217a5,5,0,0,1,-5,-5v-8a5,5,0,0,1,5,-5z"></path><g id="node_text4" fill="black"><text id="kity_text_97" text-rendering="inherit" font-size="12" dy=".8em" y="75.5" x="374.5">Tranverse the collection with forerach</text></g></g><g id="minder_node6"><g id="node_expander4" style="cursor: pointer;" display="none"><path id="kity_path_195" fill="white" stroke="gray" d="M369.5,107.5A6,6,0,1,1,357.5,107.5A6,6,0,1,1,369.5,107.5"></path><path id="kity_path_196" fill="none" stroke="gray"></path></g><path id="node_outline5" fill="none" stroke="none" d="M374.5,98.5h102a5,5,0,0,1,5,5v8a5,5,0,0,1,-5,5h-102a5,5,0,0,1,-5,-5v-8a5,5,0,0,1,5,-5z"></path><g id="node_text5" fill="black"><text id="kity_text_99" text-rendering="inherit" font-size="12" dy=".8em" y="101.5" x="374.5">JAVA8: Predicate</text></g></g><g id="minder_node7"><g id="node_expander5" style="cursor: pointer;" display="none"><path id="kity_path_198" fill="white" stroke="gray" d="M369.5,133.5A6,6,0,1,1,357.5,133.5A6,6,0,1,1,369.5,133.5"></path><path id="kity_path_199" fill="none" stroke="gray"></path></g><path id="node_outline6" fill="none" stroke="none" d="M374.5,124.5h92a5,5,0,0,1,5,5v8a5,5,0,0,1,-5,5h-92a5,5,0,0,1,-5,-5v-8a5,5,0,0,1,5,-5z"></path><g id="node_text6" fill="black"><text id="kity_text_101" text-rendering="inherit" font-size="12" dy=".8em" y="127.5" x="374.5">JAVA8L Scream</text></g></g><g id="minder_node8"><g id="node_expander12" style="cursor: pointer;"><path id="kity_path_219" fill="white" stroke="gray" d="M183.5,219.5A6,6,0,1,1,171.5,219.5A6,6,0,1,1,183.5,219.5"></path><path id="kity_path_220" fill="none" stroke="gray" d="M173,219.5L182,219.5"></path></g><path id="node_outline13" fill="rgb(246, 238, 242)" stroke="rgb(191, 115, 148)" d="M187.5,206.5h55a3,3,0,0,1,3,3v20a3,3,0,0,1,-3,3h-55a3,3,0,0,1,-3,-3v-20a3,3,0,0,1,3,-3z" stroke-width="1"></path><g id="node_text13" fill="black"><text id="kity_text_115" text-rendering="inherit" font-size="14" dy=".8em" y="212.5" x="204.5">Set</text></g></g><g id="minder_node9"><g id="node_expander7" style="cursor: pointer;" display="none"><path id="kity_path_204" fill="white" stroke="gray" d="M261.5,167.5A6,6,0,1,1,249.5,167.5A6,6,0,1,1,261.5,167.5"></path><path id="kity_path_205" fill="none" stroke="gray"></path></g><path id="node_outline8" fill="none" stroke="none" d="M266.5,158.5h46a5,5,0,0,1,5,5v8a5,5,0,0,1,-5,5h-46a5,5,0,0,1,-5,-5v-8a5,5,0,0,1,5,-5z"></path><g id="node_text8" fill="black"><text id="kity_text_105" text-rendering="inherit" font-size="12" dy=".8em" y="161.5" x="266.5">HashSet</text></g></g><g id="minder_node10"><g id="node_expander8" style="cursor: pointer;" display="none"><path id="kity_path_207" fill="white" stroke="gray" d="M261.5,193.5A6,6,0,1,1,249.5,193.5A6,6,0,1,1,261.5,193.5"></path><path id="kity_path_208" fill="none" stroke="gray"></path></g><path id="node_outline9" fill="none" stroke="none" d="M266.5,184.5h84a5,5,0,0,1,5,5v8a5,5,0,0,1,-5,5h-84a5,5,0,0,1,-5,-5v-8a5,5,0,0,1,5,-5z"></path><g id="node_text9" fill="black"><text id="kity_text_107" text-rendering="inherit" font-size="12" dy=".8em" y="187.5" x="266.5">LinkedHashSet</text></g></g><g id="minder_node11"><g id="node_expander9" style="cursor: pointer;" display="none"><path id="kity_path_210" fill="white" stroke="gray" d="M261.5,219.5A6,6,0,1,1,249.5,219.5A6,6,0,1,1,261.5,219.5"></path><path id="kity_path_211" fill="none" stroke="gray"></path></g><path id="node_outline10" fill="none" stroke="none" d="M266.5,210.5h42a5,5,0,0,1,5,5v8a5,5,0,0,1,-5,5h-42a5,5,0,0,1,-5,-5v-8a5,5,0,0,1,5,-5z"></path><g id="node_text10" fill="black"><text id="kity_text_109" text-rendering="inherit" font-size="12" dy=".8em" y="213.5" x="266.5">TreeSet</text></g></g><g id="minder_node12"><g id="node_expander10" style="cursor: pointer;" display="none"><path id="kity_path_213" fill="white" stroke="gray" d="M261.5,245.5A6,6,0,1,1,249.5,245.5A6,6,0,1,1,261.5,245.5"></path><path id="kity_path_214" fill="none" stroke="gray"></path></g><path id="node_outline11" fill="none" stroke="none" d="M266.5,236.5h50a5,5,0,0,1,5,5v8a5,5,0,0,1,-5,5h-50a5,5,0,0,1,-5,-5v-8a5,5,0,0,1,5,-5z"></path><g id="node_text11" fill="black"><text id="kity_text_111" text-rendering="inherit" font-size="12" dy=".8em" y="239.5" x="266.5">EnumSet</text></g></g><g id="minder_node13"><g id="node_expander11" style="cursor: pointer;" display="none"><path id="kity_path_216" fill="white" stroke="gray" d="M261.5,271.5A6,6,0,1,1,249.5,271.5A6,6,0,1,1,261.5,271.5"></path><path id="kity_path_217" fill="none" stroke="gray"></path></g><path id="node_outline12" fill="none" stroke="none" d="M266.5,262.5h127a5,5,0,0,1,5,5v8a5,5,0,0,1,-5,5h-127a5,5,0,0,1,-5,-5v-8a5,5,0,0,1,5,-5z"></path><g id="node_text12" fill="black"><text id="kity_text_113" text-rendering="inherit" font-size="12" dy=".8em" y="265.5" x="266.5">Efficiency Analyzation</text></g></g><g id="minder_node14"><g id="node_expander16" style="cursor: pointer;"><path id="kity_path_231" fill="white" stroke="gray" d="M183.5,331.5A6,6,0,1,1,171.5,331.5A6,6,0,1,1,183.5,331.5"></path><path id="kity_path_232" fill="none" stroke="gray" d="M173,331.5L182,331.5"></path></g><path id="node_outline17" fill="rgb(246, 238, 242)" stroke="rgb(191, 115, 148)" d="M187.5,318.5h53a3,3,0,0,1,3,3v20a3,3,0,0,1,-3,3h-53a3,3,0,0,1,-3,-3v-20a3,3,0,0,1,3,-3z" stroke-width="1"></path><g id="node_text17" fill="black"><text id="kity_text_123" text-rendering="inherit" font-size="14" dy=".8em" y="324.5" x="204.5">List</text></g></g><g id="minder_node15"><g id="node_expander13" style="cursor: pointer;" display="none"><path id="kity_path_222" fill="white" stroke="gray" d="M259.5,305.5A6,6,0,1,1,247.5,305.5A6,6,0,1,1,259.5,305.5"></path><path id="kity_path_223" fill="none" stroke="gray"></path></g><path id="node_outline14" fill="none" stroke="none" d="M264.5,296.5h59a5,5,0,0,1,5,5v8a5,5,0,0,1,-5,5h-59a5,5,0,0,1,-5,-5v-8a5,5,0,0,1,5,-5z"></path><g id="node_text14" fill="black"><text id="kity_text_117" text-rendering="inherit" font-size="12" dy=".8em" y="299.5" x="264.5">ListIterator</text></g></g><g id="minder_node16"><g id="node_expander14" style="cursor: pointer;" display="none"><path id="kity_path_225" fill="white" stroke="gray" d="M259.5,331.5A6,6,0,1,1,247.5,331.5A6,6,0,1,1,259.5,331.5"></path><path id="kity_path_226" fill="none" stroke="gray"></path></g><path id="node_outline15" fill="none" stroke="none" d="M264.5,322.5h50a5,5,0,0,1,5,5v8a5,5,0,0,1,-5,5h-50a5,5,0,0,1,-5,-5v-8a5,5,0,0,1,5,-5z"></path><g id="node_text15" fill="black"><text id="kity_text_119" text-rendering="inherit" font-size="12" dy=".8em" y="325.5" x="264.5">ArrayList&#xa0;</text></g></g><g id="minder_node17"><g id="node_expander15" style="cursor: pointer;" display="none"><path id="kity_path_228" fill="white" stroke="gray" d="M259.5,357.5A6,6,0,1,1,247.5,357.5A6,6,0,1,1,259.5,357.5"></path><path id="kity_path_229" fill="none" stroke="gray"></path></g><path id="node_outline16" fill="none" stroke="none" d="M264.5,348.5h93a5,5,0,0,1,5,5v8a5,5,0,0,1,-5,5h-93a5,5,0,0,1,-5,-5v-8a5,5,0,0,1,5,-5z"></path><g id="node_text16" fill="black"><text id="kity_text_121" text-rendering="inherit" font-size="12" dy=".8em" y="351.5" x="264.5">Fixed Length Lsit</text></g></g><g id="minder_node18"><g id="node_expander21" style="cursor: pointer;"><path id="kity_path_246" fill="white" stroke="gray" d="M183.5,430.5A6,6,0,1,1,171.5,430.5A6,6,0,1,1,183.5,430.5"></path><path id="kity_path_247" fill="none" stroke="gray" d="M173,430.5L182,430.5"></path></g><path id="node_outline22" fill="rgb(246, 238, 242)" stroke="rgb(191, 115, 148)" d="M187.5,417.5h81a3,3,0,0,1,3,3v20a3,3,0,0,1,-3,3h-81a3,3,0,0,1,-3,-3v-20a3,3,0,0,1,3,-3z" stroke-width="1"></path><g id="node_text22" fill="black"><text id="kity_text_133" text-rendering="inherit" font-size="14" dy=".8em" y="423.5" x="204.5">Queue</text></g></g><g id="minder_node19"><g id="node_expander17" style="cursor: pointer;" display="none"><path id="kity_path_234" fill="white" stroke="gray" d="M287.5,391.5A6,6,0,1,1,275.5,391.5A6,6,0,1,1,287.5,391.5"></path><path id="kity_path_235" fill="none" stroke="gray"></path></g><path id="node_outline18" fill="none" stroke="none" d="M292.5,382.5h78a5,5,0,0,1,5,5v8a5,5,0,0,1,-5,5h-78a5,5,0,0,1,-5,-5v-8a5,5,0,0,1,5,-5z"></path><g id="node_text18" fill="black"><text id="kity_text_125" text-rendering="inherit" font-size="12" dy=".8em" y="385.5" x="292.5">PriorityQueue</text></g></g><g id="minder_node20"><g id="node_expander18" style="cursor: pointer;" display="none"><path id="kity_path_237" fill="white" stroke="gray" d="M287.5,417.5A6,6,0,1,1,275.5,417.5A6,6,0,1,1,287.5,417.5"></path><path id="kity_path_238" fill="none" stroke="gray"></path></g><path id="node_outline19" fill="none" stroke="none" d="M292.5,408.5h215a5,5,0,0,1,5,5v8a5,5,0,0,1,-5,5h-215a5,5,0,0,1,-5,-5v-8a5,5,0,0,1,5,-5z"></path><g id="node_text19" fill="black"><text id="kity_text_127" text-rendering="inherit" font-size="12" dy=".8em" y="411.5" x="292.5">Interface Deque &amp; Class ArrayQueue</text></g></g><g id="minder_node21"><g id="node_expander19" style="cursor: pointer;" display="none"><path id="kity_path_240" fill="white" stroke="gray" d="M287.5,443.5A6,6,0,1,1,275.5,443.5A6,6,0,1,1,287.5,443.5"></path><path id="kity_path_241" fill="none" stroke="gray"></path></g><path id="node_outline20" fill="none" stroke="none" d="M292.5,434.5h54a5,5,0,0,1,5,5v8a5,5,0,0,1,-5,5h-54a5,5,0,0,1,-5,-5v-8a5,5,0,0,1,5,-5z"></path><g id="node_text20" fill="black"><text id="kity_text_129" text-rendering="inherit" font-size="12" dy=".8em" y="437.5" x="292.5">LinkedList</text></g></g><g id="minder_node22"><g id="node_expander20" style="cursor: pointer;" display="none"><path id="kity_path_243" fill="white" stroke="gray" d="M287.5,469.5A6,6,0,1,1,275.5,469.5A6,6,0,1,1,287.5,469.5"></path><path id="kity_path_244" fill="none" stroke="gray"></path></g><path id="node_outline21" fill="none" stroke="none" d="M292.5,460.5h127a5,5,0,0,1,5,5v8a5,5,0,0,1,-5,5h-127a5,5,0,0,1,-5,-5v-8a5,5,0,0,1,5,-5z"></path><g id="node_text21" fill="black"><text id="kity_text_131" text-rendering="inherit" font-size="12" dy=".8em" y="463.5" x="292.5">Efficiency Analyzation</text></g></g><g id="minder_node23"><g id="node_expander31" style="cursor: pointer;"><path id="kity_path_276" fill="white" stroke="gray" d="M183.5,607.5A6,6,0,1,1,171.5,607.5A6,6,0,1,1,183.5,607.5"></path><path id="kity_path_277" fill="none" stroke="gray" d="M173,607.5L182,607.5"></path></g><path id="node_outline32" fill="rgb(246, 238, 242)" stroke="rgb(191, 115, 148)" d="M187.5,594.5h66a3,3,0,0,1,3,3v20a3,3,0,0,1,-3,3h-66a3,3,0,0,1,-3,-3v-20a3,3,0,0,1,3,-3z" stroke-width="1"></path><g id="node_text32" fill="black"><text id="kity_text_153" text-rendering="inherit" font-size="14" dy=".8em" y="600.5" x="204.5">Map</text></g></g><g id="minder_node24"><g id="node_expander22" style="cursor: pointer;" display="none"><path id="kity_path_249" fill="white" stroke="gray" d="M272.5,503.5A6,6,0,1,1,260.5,503.5A6,6,0,1,1,272.5,503.5"></path><path id="kity_path_250" fill="none" stroke="gray"></path></g><path id="node_outline23" fill="none" stroke="none" d="M277.5,494.5h184a5,5,0,0,1,5,5v8a5,5,0,0,1,-5,5h-184a5,5,0,0,1,-5,-5v-8a5,5,0,0,1,5,-5z"></path><g id="node_text23" fill="black"><text id="kity_text_135" text-rendering="inherit" font-size="12" dy=".8em" y="497.5" x="277.5">New methods for Map in JAVA8</text></g></g><g id="minder_node25"><g id="node_expander23" style="cursor: pointer;" display="none"><path id="kity_path_252" fill="white" stroke="gray" d="M272.5,529.5A6,6,0,1,1,260.5,529.5A6,6,0,1,1,272.5,529.5"></path><path id="kity_path_253" fill="none" stroke="gray"></path></g><path id="node_outline24" fill="none" stroke="none" d="M277.5,520.5h130a5,5,0,0,1,5,5v8a5,5,0,0,1,-5,5h-130a5,5,0,0,1,-5,-5v-8a5,5,0,0,1,5,-5z"></path><g id="node_text24" fill="black"><text id="kity_text_137" text-rendering="inherit" font-size="12" dy=".8em" y="523.5" x="277.5">HashMap &amp; Hashtable</text></g></g><g id="minder_node26"><g id="node_expander24" style="cursor: pointer;" display="none"><path id="kity_path_255" fill="white" stroke="gray" d="M272.5,555.5A6,6,0,1,1,260.5,555.5A6,6,0,1,1,272.5,555.5"></path><path id="kity_path_256" fill="none" stroke="gray"></path></g><path id="node_outline25" fill="none" stroke="none" d="M277.5,546.5h93a5,5,0,0,1,5,5v8a5,5,0,0,1,-5,5h-93a5,5,0,0,1,-5,-5v-8a5,5,0,0,1,5,-5z"></path><g id="node_text25" fill="black"><text id="kity_text_139" text-rendering="inherit" font-size="12" dy=".8em" y="549.5" x="277.5">LinkedHashMap</text></g></g><g id="minder_node27"><g id="node_expander25" style="cursor: pointer;" display="none"><path id="kity_path_258" fill="white" stroke="gray" d="M272.5,581.5A6,6,0,1,1,260.5,581.5A6,6,0,1,1,272.5,581.5"></path><path id="kity_path_259" fill="none" stroke="gray"></path></g><path id="node_outline26" fill="none" stroke="none" d="M277.5,572.5h57a5,5,0,0,1,5,5v8a5,5,0,0,1,-5,5h-57a5,5,0,0,1,-5,-5v-8a5,5,0,0,1,5,-5z"></path><g id="node_text26" fill="black"><text id="kity_text_141" text-rendering="inherit" font-size="12" dy=".8em" y="575.5" x="277.5">Properties</text></g></g><g id="minder_node28"><g id="node_expander26" style="cursor: pointer;" display="none"><path id="kity_path_261" fill="white" stroke="gray" d="M272.5,607.5A6,6,0,1,1,260.5,607.5A6,6,0,1,1,272.5,607.5"></path><path id="kity_path_262" fill="none" stroke="gray"></path></g><path id="node_outline27" fill="none" stroke="none" d="M277.5,598.5h65a5,5,0,0,1,5,5v8a5,5,0,0,1,-5,5h-65a5,5,0,0,1,-5,-5v-8a5,5,0,0,1,5,-5z"></path><g id="node_text27" fill="black"><text id="kity_text_143" text-rendering="inherit" font-size="12" dy=".8em" y="601.5" x="277.5">SortedMap</text></g></g><g id="minder_node29"><g id="node_expander27" style="cursor: pointer;" display="none"><path id="kity_path_264" fill="white" stroke="gray" d="M272.5,633.5A6,6,0,1,1,260.5,633.5A6,6,0,1,1,272.5,633.5"></path><path id="kity_path_265" fill="none" stroke="gray"></path></g><path id="node_outline28" fill="none" stroke="none" d="M277.5,624.5h89a5,5,0,0,1,5,5v8a5,5,0,0,1,-5,5h-89a5,5,0,0,1,-5,-5v-8a5,5,0,0,1,5,-5z"></path><g id="node_text28" fill="black"><text id="kity_text_145" text-rendering="inherit" font-size="12" dy=".8em" y="627.5" x="277.5">WeakHashMap</text></g></g><g id="minder_node30"><g id="node_expander28" style="cursor: pointer;" display="none"><path id="kity_path_267" fill="white" stroke="gray" d="M272.5,659.5A6,6,0,1,1,260.5,659.5A6,6,0,1,1,272.5,659.5"></path><path id="kity_path_268" fill="none" stroke="gray"></path></g><path id="node_outline29" fill="none" stroke="none" d="M277.5,650.5h99a5,5,0,0,1,5,5v8a5,5,0,0,1,-5,5h-99a5,5,0,0,1,-5,-5v-8a5,5,0,0,1,5,-5z"></path><g id="node_text29" fill="black"><text id="kity_text_147" text-rendering="inherit" font-size="12" dy=".8em" y="653.5" x="277.5">IdentityHashMap</text></g></g><g id="minder_node31"><g id="node_expander29" style="cursor: pointer;" display="none"><path id="kity_path_270" fill="white" stroke="gray" d="M272.5,685.5A6,6,0,1,1,260.5,685.5A6,6,0,1,1,272.5,685.5"></path><path id="kity_path_271" fill="none" stroke="gray"></path></g><path id="node_outline30" fill="none" stroke="none" d="M277.5,676.5h60a5,5,0,0,1,5,5v8a5,5,0,0,1,-5,5h-60a5,5,0,0,1,-5,-5v-8a5,5,0,0,1,5,-5z"></path><g id="node_text30" fill="black"><text id="kity_text_149" text-rendering="inherit" font-size="12" dy=".8em" y="679.5" x="277.5">EnumMap</text></g></g><g id="minder_node32"><g id="node_expander30" style="cursor: pointer;" display="none"><path id="kity_path_273" fill="white" stroke="gray" d="M272.5,711.5A6,6,0,1,1,260.5,711.5A6,6,0,1,1,272.5,711.5"></path><path id="kity_path_274" fill="none" stroke="gray"></path></g><path id="node_outline31" fill="none" stroke="none" d="M277.5,702.5h127a5,5,0,0,1,5,5v8a5,5,0,0,1,-5,5h-127a5,5,0,0,1,-5,-5v-8a5,5,0,0,1,5,-5z"></path><g id="node_text31" fill="black"><text id="kity_text_151" text-rendering="inherit" font-size="12" dy=".8em" y="705.5" x="277.5">Efficiency Analysation</text></g></g><g id="minder_node33"><g id="node_expander32" style="cursor: pointer;" display="none"><path id="kity_path_284" fill="white" stroke="gray" d="M183.5,749.5A6,6,0,1,1,171.5,749.5A6,6,0,1,1,183.5,749.5"></path><path id="kity_path_285" fill="none" stroke="gray" d="M173,749.5L182,749.5"></path></g><path id="node_outline33" fill="rgb(246, 238, 242)" stroke="rgb(191, 115, 148)" d="M187.5,736.5h273a3,3,0,0,1,3,3v20a3,3,0,0,1,-3,3h-273a3,3,0,0,1,-3,-3v-20a3,3,0,0,1,3,-3z" stroke-width="1"></path><g id="node_text33" fill="black"><text id="kity_text_281" text-rendering="inherit" font-size="14" dy=".8em" y="742.5" x="204.5">Efficiency of HashSet and HashMap</text></g></g><g id="minder_node35"><g id="node_expander34" style="cursor: pointer;"><path id="kity_path_300" fill="white" stroke="gray" d="M183.5,826.5A6,6,0,1,1,171.5,826.5A6,6,0,1,1,183.5,826.5"></path><path id="kity_path_301" fill="none" stroke="gray" d="M173,826.5L182,826.5"></path></g><path id="node_outline35" fill="rgb(246, 238, 242)" stroke="rgb(191, 115, 148)" d="M187.5,813.5h109a3,3,0,0,1,3,3v20a3,3,0,0,1,-3,3h-109a3,3,0,0,1,-3,-3v-20a3,3,0,0,1,3,-3z" stroke-width="1"></path><g id="node_text35" fill="black"><text id="kity_text_297" text-rendering="inherit" font-size="14" dy=".8em" y="819.5" x="204.5">Collections</text></g></g><g id="minder_node36"><g id="node_expander35" style="cursor: pointer;" display="none"><path id="kity_path_308" fill="white" stroke="gray" d="M315.5,787.5A6,6,0,1,1,303.5,787.5A6,6,0,1,1,315.5,787.5"></path><path id="kity_path_309" fill="none" stroke="gray"></path></g><path id="node_outline36" fill="none" stroke="none" d="M320.5,778.5h22a5,5,0,0,1,5,5v8a5,5,0,0,1,-5,5h-22a5,5,0,0,1,-5,-5v-8a5,5,0,0,1,5,-5z" stroke-width="3"></path><g id="node_text36" fill="black"><text id="kity_text_305" text-rendering="inherit" font-size="12" dy=".8em" y="781.5" x="320.5">Sort</text></g></g><g id="minder_node37"><g id="node_expander36" style="cursor: pointer;" display="none"><path id="kity_path_316" fill="white" stroke="gray" d="M315.5,813.5A6,6,0,1,1,303.5,813.5A6,6,0,1,1,315.5,813.5"></path><path id="kity_path_317" fill="none" stroke="gray"></path></g><path id="node_outline37" fill="none" stroke="none" d="M320.5,804.5h105a5,5,0,0,1,5,5v8a5,5,0,0,1,-5,5h-105a5,5,0,0,1,-5,-5v-8a5,5,0,0,1,5,-5z" stroke-width="3"></path><g id="node_text37" fill="black"><text id="kity_text_313" text-rendering="inherit" font-size="12" dy=".8em" y="807.5" x="320.5">Search &amp; Replace</text></g></g><g id="minder_node38"><g id="node_expander37" style="cursor: pointer;" display="none"><path id="kity_path_324" fill="white" stroke="gray" d="M315.5,839.5A6,6,0,1,1,303.5,839.5A6,6,0,1,1,315.5,839.5"></path><path id="kity_path_325" fill="none" stroke="gray"></path></g><path id="node_outline38" fill="none" stroke="none" d="M320.5,830.5h69a5,5,0,0,1,5,5v8a5,5,0,0,1,-5,5h-69a5,5,0,0,1,-5,-5v-8a5,5,0,0,1,5,-5z" stroke-width="3"></path><g id="node_text38" fill="black"><text id="kity_text_321" text-rendering="inherit" font-size="12" dy=".8em" y="833.5" x="320.5">Synchronize</text></g></g><g id="minder_node39"><g id="node_expander38" style="cursor: pointer;" display="none"><path id="kity_path_332" fill="white" stroke="gray" d="M315.5,865.5A6,6,0,1,1,303.5,865.5A6,6,0,1,1,315.5,865.5"></path><path id="kity_path_333" fill="none" stroke="gray"></path></g><path id="node_outline39" fill="none" stroke="none" d="M320.5,856.5h141a5,5,0,0,1,5,5v8a5,5,0,0,1,-5,5h-141a5,5,0,0,1,-5,-5v-8a5,5,0,0,1,5,-5z" stroke-width="3"></path><g id="node_text39" fill="black"><text id="kity_text_329" text-rendering="inherit" font-size="12" dy=".8em" y="859.5" x="320.5">Unchangabe Collection</text></g></g><g id="minder_node41"><g id="node_expander40" style="cursor: pointer;" display="none"><path id="kity_path_348" fill="white" stroke="gray" d="M183.5,903.5A6,6,0,1,1,171.5,903.5A6,6,0,1,1,183.5,903.5"></path><path id="kity_path_349" fill="none" stroke="gray"></path></g><path id="node_outline41" fill="rgb(246, 238, 242)" stroke="rgb(191, 115, 148)" d="M187.5,890.5h120a3,3,0,0,1,3,3v20a3,3,0,0,1,-3,3h-120a3,3,0,0,1,-3,-3v-20a3,3,0,0,1,3,-3z" stroke-width="1"></path><g id="node_text41" fill="black"><text id="kity_text_345" text-rendering="inherit" font-size="14" dy=".8em" y="896.5" x="204.5">Enumeration</text></g></g></g></g></svg>